<?xml version="1.0" standalone="no"?><!DOCTYPE svg PUBLIC "-//W3C//DTD SVG 1.1//EN" "http://www.w3.org/Graphics/SVG/1.1/DTD/svg11.dtd"><svg t="1523410126762" class="icon" style="" viewBox="0 0 1024 1024" version="1.1" xmlns="http://www.w3.org/2000/svg" p-id="4778" xmlns:xlink="http://www.w3.org/1999/xlink" width="200" height="200"><defs><style type="text/css"></style></defs><path d="M115.1 352.6h793.8v27.7H115.1z" p-id="4779" fill="#ffffff"></path><path d="M822.2 932H201.8c-64.5 0-117.1-52.5-117.1-117.1V209.1C84.8 144.5 137.3 92 201.8 92h620.3c64.5 0 117.1 52.5 117.1 117.1V815c0 64.5-52.5 117-117 117zM201.8 138.2c-39.1 0-70.9 31.8-70.9 70.9V815c0 39.1 31.8 70.9 70.9 70.9h620.3c39.1 0 70.9-31.8 70.9-70.9V209.1c0-39.1-31.8-70.9-70.9-70.9H201.8z" p-id="4780" fill="#ffffff"></path><path d="M322 295.7H192.8c-7.6 0-13.8-6.2-13.8-13.8s6.2-13.8 13.8-13.8H322c7.6 0 13.8 6.2 13.8 13.8s-6.2 13.8-13.8 13.8zM561.6 834.8l-61.1-157.7h22.6l41 114.6c3.3 9.2 6.1 17.8 8.3 25.8 2.4-8.6 5.3-17.2 8.5-25.8l42.6-114.6h21.3L583 834.8h-21.4zM667 834.8V677.1h20.9v157.7H667zM724.7 834.8V677.1h59.5c10.5 0 18.5 0.5 24 1.5 7.7 1.3 14.2 3.8 19.5 7.4 5.2 3.6 9.4 8.7 12.6 15.2 3.2 6.5 4.8 13.7 4.8 21.5 0 13.4-4.3 24.8-12.8 34-8.5 9.3-24 13.9-46.3 13.9h-40.4v64.1h-20.9z m20.9-82.7h40.8c13.5 0 23-2.5 28.7-7.5 5.7-5 8.5-12.1 8.5-21.2 0-6.6-1.7-12.2-5-16.9-3.3-4.7-7.7-7.8-13.2-9.3-3.5-0.9-10-1.4-19.5-1.4h-40.3v56.3z" p-id="4781" fill="#ffffff"></path></svg>