<?xml version="1.0" standalone="no"?><!DOCTYPE svg PUBLIC "-//W3C//DTD SVG 1.1//EN" "http://www.w3.org/Graphics/SVG/1.1/DTD/svg11.dtd"><svg t="1523410918943" class="icon" style="" viewBox="0 0 1024 1024" version="1.1" xmlns="http://www.w3.org/2000/svg" p-id="5818" xmlns:xlink="http://www.w3.org/1999/xlink" width="200" height="200"><defs><style type="text/css"></style></defs><path d="M873.536 937.984H150.464a85.312 85.312 0 0 1-85.248-85.184V238.656c0-46.976 38.208-85.184 85.248-85.184H873.6c46.976 0 85.248 38.208 85.248 85.184v614.144a85.312 85.312 0 0 1-85.312 85.184zM150.464 201.472a37.248 37.248 0 0 0-37.248 37.184v614.144c0 20.48 16.704 37.184 37.248 37.184H873.6a37.248 37.248 0 0 0 37.248-37.184V238.656a37.248 37.248 0 0 0-37.248-37.184H150.464z" p-id="5819" fill="#ffffff"></path><path d="M110.016 324.736h804.032v28.032H110.016zM398.016 236.736a24 24 0 0 1-48 0V116.736a24 24 0 0 1 48 0v120zM674.048 236.736a24 24 0 0 1-48 0V116.736a24 24 0 0 1 48 0v120z" p-id="5820" fill="#ffffff"></path><path d="M298.688 528.384m-42.624 0a42.624 42.624 0 1 0 85.248 0 42.624 42.624 0 1 0-85.248 0Z" p-id="5821" fill="#ffffff"></path><path d="M511.616 528.384m-42.624 0a42.624 42.624 0 1 0 85.248 0 42.624 42.624 0 1 0-85.248 0Z" p-id="5822" fill="#ffffff"></path><path d="M725.632 528.384m-42.624 0a42.624 42.624 0 1 0 85.248 0 42.624 42.624 0 1 0-85.248 0Z" p-id="5823" fill="#ffffff"></path><path d="M298.688 705.344m-42.624 0a42.624 42.624 0 1 0 85.248 0 42.624 42.624 0 1 0-85.248 0Z" p-id="5824" fill="#ffffff"></path><path d="M511.936 705.344m-42.624 0a42.624 42.624 0 1 0 85.248 0 42.624 42.624 0 1 0-85.248 0Z" p-id="5825" fill="#ffffff"></path><path d="M725.632 705.344m-42.624 0a42.624 42.624 0 1 0 85.248 0 42.624 42.624 0 1 0-85.248 0Z" p-id="5826" fill="#ffffff"></path></svg>