<?xml version="1.0" standalone="no"?><!DOCTYPE svg PUBLIC "-//W3C//DTD SVG 1.1//EN" "http://www.w3.org/Graphics/SVG/1.1/DTD/svg11.dtd"><svg t="1523413052248" class="icon" style="" viewBox="0 0 1024 1024" version="1.1" xmlns="http://www.w3.org/2000/svg" p-id="2519" xmlns:xlink="http://www.w3.org/1999/xlink" width="200" height="200"><defs><style type="text/css"></style></defs><path d="M773.172301 286.383496c47.12632 0 85.329411-38.20309 85.329411-85.329411s-38.20309-85.329411-85.329411-85.32941-85.329411 38.20309-85.32941 85.32941 38.20309 85.329411 85.32941 85.329411z m0 63.996546c-82.470293 0-149.325957-66.855664-149.325957-149.325957 0-82.470293 66.855664-149.325957 149.325957-149.325957S922.498258 118.583792 922.498258 201.054085c0 82.471316-66.855664 149.325957-149.325957 149.325957zM368.172267 143.933133l7.541767-7.541766c8.330736-8.330736 21.837354-8.330736 30.16809 0L813.156968 543.665187l120.673383-120.673383c8.330736-8.330736 21.837354-8.330736 30.169113 0l15.083534 15.084556c8.330736 8.330736 8.330736 21.837354 0 30.169114L828.240501 619.086947a21.268396 21.268396 0 0 1-15.084557 6.248308 21.265326 21.265326 0 0 1-15.084556-6.248308L601.977267 422.991804 481.303884 543.665187l196.095143 196.095143a21.268396 21.268396 0 0 1 6.248308 15.084557c0 5.459339-2.082428 10.918677-6.248308 15.084557L481.303884 966.023564c-8.330736 8.330736-21.837354 8.330736-30.16809 0l-15.084557-15.084557c-8.330736-8.330736-8.330736-21.837354 0-30.16809L601.977267 754.844887 436.051237 588.917834l-345.969592 345.968569c-8.289804 8.289804-21.686928 8.332782-30.078039-0.058328l-15.115256-15.115256c-8.322549-8.322549-8.244778-21.892613-0.058329-30.078039l511.895623-511.895623-165.927053-165.927054-120.674407 120.674407c-8.330736 8.330736-21.837354 8.330736-30.16809 0l-15.084557-15.084557c-8.330736-8.330736-8.330736-21.837354 0-30.16809l143.30073-143.30073z" p-id="2520" fill="#ffffff"></path></svg>