<?xml version="1.0" standalone="no"?><!DOCTYPE svg PUBLIC "-//W3C//DTD SVG 1.1//EN" "http://www.w3.org/Graphics/SVG/1.1/DTD/svg11.dtd"><svg t="1523513570550" class="icon" style="" viewBox="0 0 1024 1024" version="1.1" xmlns="http://www.w3.org/2000/svg" p-id="1455" xmlns:xlink="http://www.w3.org/1999/xlink" width="200" height="200"><defs><style type="text/css"></style></defs><path d="M906.666667 256h-789.333334c-36.266667 0-64 27.733333-64 64v597.333333c0 36.266667 27.733333 64 64 64h789.333334c36.266667 0 64-27.733333 64-64V320c0-36.266667-27.733333-64-64-64z m21.333333 661.333333c0 12.8-8.533333 21.333333-21.333333 21.333334h-789.333334c-12.8 0-21.333333-8.533333-21.333333-21.333334V469.333333h832v448z m0-490.666666h-832v-106.666667c0-12.8 8.533333-21.333333 21.333333-21.333333h789.333334c12.8 0 21.333333 8.533333 21.333333 21.333333v106.666667z m-469.333333 170.666666h128c12.8 0 21.333333-8.533333 21.333333-21.333333s-8.533333-21.333333-21.333333-21.333333h-128c-12.8 0-21.333333 8.533333-21.333334 21.333333s8.533333 21.333333 21.333334 21.333333z m-128-384c12.8 0 21.333333-8.533333 21.333333-21.333333V119.466667c0-19.2 17.066667-34.133333 36.266667-34.133334h268.8c19.2 0 36.266667 14.933333 36.266666 34.133334V192c0 12.8 8.533333 21.333333 21.333334 21.333333s21.333333-8.533333 21.333333-21.333333V119.466667c0-42.666667-36.266667-76.8-78.933333-76.8H388.266667c-42.666667 0-78.933333 34.133333-78.933334 76.8V192c0 12.8 8.533333 21.333333 21.333334 21.333333z" fill="#ffffff" p-id="1456"></path></svg>